<svg width="287" height="242" viewBox="0 0 287 242" fill="none" xmlns="http://www.w3.org/2000/svg">
<path d="M83.12 95.4613L128.479 16.8959L170.02 88.8559C167.463 88.8119 164.903 88.7959 162.351 88.7959C161.035 88.7959 159.708 88.8026 158.365 88.8119L135.456 49.1239L128.479 37.0399L121.497 49.1239L95.9333 93.404C91.6107 94.028 87.3293 94.7146 83.12 95.4613ZM128.479 53.1519L153.747 96.9266C156.599 96.8733 159.467 96.8519 162.351 96.8519C169.745 96.8519 177.044 97.0185 184.225 97.3412L128.479 0.78392L67.2227 106.884C77.8613 104.457 89.1453 102.427 100.944 100.843L128.479 53.1519Z" fill="#F66B0E"/>
<path d="M164.667 115.837L180.348 143H76.6893C98.6427 130.755 129.164 121.215 164.667 115.837ZM90.9107 241.732C59.316 227.848 40.008 209.267 40.008 188.853C40.008 182.059 42.1453 175.469 46.1653 169.185H225.704L192.995 112.533C205.44 111.5 218.325 110.956 231.523 110.956C249.299 110.956 266.512 111.941 282.841 113.788C281.901 113.483 280.931 113.195 279.973 112.897C280.931 113.195 281.901 113.483 282.843 113.787C283.939 113.911 285.028 114.036 286.117 114.168C283.239 113.439 280.311 112.743 277.328 112.077C277.327 112.077 277.325 112.076 277.323 112.076C250.653 106.129 219.969 102.725 187.311 102.689C187.117 102.685 186.921 102.685 186.728 102.685C179.293 102.685 171.964 102.861 164.76 103.2C162.357 103.313 159.969 103.445 157.597 103.595C134.843 105.023 113.453 108.099 94.2067 112.511C92.544 112.892 90.8973 113.283 89.2667 113.684C77.856 116.489 67.2573 119.775 57.644 123.469C22.1697 137.085 0.0833282 156.265 0.0833282 177.512C0.0833282 204.789 36.496 228.66 90.9107 241.732Z" fill="#112B3C"/>
</svg>
