<svg width="238" height="237" viewBox="0 0 238 237" fill="none" xmlns="http://www.w3.org/2000/svg">
<path d="M40.9893 64.4013C59.6146 45.7706 82.896 31.852 110.292 22.9307L59.9679 73.2534C54.0919 79.1307 46.2839 82.3666 37.9706 82.3666C33.6373 82.3666 29.4399 81.484 25.5786 79.8106L40.9893 64.4013ZM68.052 81.3386L149.195 0.190598L116.947 9.01729C83.3893 18.1973 55.1106 34.112 32.9039 56.3173L7.88928 81.3386C16.1959 89.6413 27.0799 93.7974 37.9706 93.7974C48.8599 93.7974 59.744 89.6413 68.052 81.3386Z" fill="#21F28E"/>
<path d="M73.9547 177.668C83.2333 186.947 85.416 200.673 80.5 212.047L65.1013 196.647C46.4759 178.021 32.552 154.74 23.636 127.344L73.9547 177.668ZM57.0226 204.731L82.0386 229.747C90.3466 221.44 94.4973 210.555 94.4973 199.665C94.4973 188.776 90.3466 177.892 82.0386 169.584L0.895996 88.4413L9.71728 120.689C18.8986 154.247 34.8173 182.525 57.0226 204.731Z" fill="#1F2732"/>
<path d="M197.46 172.753C178.835 191.384 155.555 205.308 128.159 214.223L178.483 163.9C184.357 158.024 192.172 154.787 200.48 154.787C204.813 154.787 209.011 155.671 212.871 157.343L197.46 172.753ZM200.48 143.357C189.595 143.357 178.705 147.514 170.399 155.82L89.2546 236.964L121.503 228.141C155.061 218.961 183.34 203.043 205.545 180.837L230.561 155.82C226.409 151.67 221.609 148.552 216.487 146.475C211.369 144.396 205.924 143.357 200.48 143.357Z" fill="#21F28E"/>
<path d="M157.949 25.1079L173.348 40.5066C191.975 59.1386 205.899 82.4147 214.815 109.809L164.496 59.492C155.216 50.212 153.035 36.4799 157.949 25.1079ZM156.412 67.5707L237.555 148.713L228.733 116.465C219.552 82.908 203.633 54.6293 181.428 32.4226L156.412 7.40662C139.796 24.0226 139.796 50.9547 156.412 67.5707Z" fill="#1F2732"/>
</svg>
