<svg width="171" height="228" viewBox="0 0 171 228" fill="none" xmlns="http://www.w3.org/2000/svg">
<path d="M132.781 130.16V167.48H38.5547C36.088 167.48 33.688 167.253 31.3547 166.8C31.0213 166.733 30.688 166.653 30.3547 166.587C25.1013 165.44 20.2613 163.213 16.048 160.147C6.5013 153.173 0.274658 141.92 0.274658 129.227V0.05336C19.208 10.8267 31.3547 31.1467 31.3547 53.4267V114.547C31.3547 126.613 41.1533 136.413 53.2213 136.413H117.487C123.435 136.413 128.835 134.027 132.781 130.16Z" fill="#1F2732"/>
<path d="M170.421 0.0533981V72.16C163.728 62.2667 153.261 55.04 140.861 52.68C140.368 52.5866 139.875 52.4934 139.368 52.4267C139.715 30.5334 151.781 10.6667 170.421 0.0533981Z" fill="#1F2732"/>
<path d="M170.421 98.1334V227.28C151.501 216.507 139.355 196.187 139.355 173.907V112.787C139.355 100.733 129.541 90.9201 117.487 90.9201H53.2213C47.2747 90.9201 41.8746 93.3067 37.928 97.1733V59.8534H132.153C134.621 59.8534 137.021 60.08 139.355 60.5334C157.021 63.9067 170.421 79.48 170.421 98.1334Z" fill="#706EEB"/>
<path d="M31.3413 174.907C30.9947 196.8 18.928 216.667 0.274658 227.28V155.147C3.23466 159.52 6.96799 163.413 11.3413 166.6C16.5413 170.4 22.368 173.027 28.6346 174.4L28.8467 174.453C29.18 174.52 29.5133 174.587 29.8346 174.653C30.328 174.747 30.8347 174.84 31.3413 174.907Z" fill="#706EEB"/>
</svg>
