<svg width="231" height="231" viewBox="0 0 231 231" fill="none" xmlns="http://www.w3.org/2000/svg">
<path d="M134.029 2.28003H134.041L134.032 2.27736C133.569 2.19869 133.107 2.12534 132.644 2.05601C132.428 2.02267 132.215 1.99204 131.999 1.96004C132.215 1.99204 132.428 2.02401 132.643 2.05601C133.107 2.12401 133.571 2.1987 134.029 2.28003Z" fill="#FFFCFA"/>
<path d="M163.836 11.5295L163.852 11.5334L163.839 11.5281C162.671 10.9788 161.6 10.5001 160.569 10.0601L160.54 10.0481L160.567 10.0614C161.6 10.5014 162.672 10.9788 163.836 11.5295Z" fill="#FFFCFA"/>
<path d="M149.981 6.10803C149.704 6.0187 149.425 5.928 149.145 5.84267C148.855 5.75467 148.569 5.66937 148.281 5.58271C148.569 5.66937 148.856 5.756 149.143 5.84534C149.423 5.93067 149.701 6.01737 149.981 6.10803Z" fill="#FFFCFA"/>
<path d="M145.628 4.82141C145.501 4.78674 145.375 4.75074 145.247 4.71607L145.171 4.69609L145.248 4.71874C145.375 4.75341 145.501 4.78674 145.628 4.82141Z" fill="#FFFCFA"/>
<path d="M145.912 4.90002L145.904 4.89736L145.888 4.89202L145.904 4.89872L145.912 4.90002Z" fill="#FFFCFA"/>
<path d="M159.613 9.65338L159.719 9.69739C159.972 9.80272 160.22 9.90674 160.468 10.0187L160.493 10.0294L160.469 10.0174C160.22 9.90671 159.972 9.80009 159.72 9.69609L159.612 9.65208L159.541 9.62004L159.525 9.6134L159.539 9.62271L159.613 9.65338Z" fill="#FFFCFA"/>
<path d="M164.033 11.6227L165.019 12.0934C165.396 12.2667 165.767 12.4467 166.132 12.6387L166.171 12.656L166.183 12.6614L166.167 12.6534L166.131 12.6361C165.764 12.4481 165.393 12.2694 165.019 12.0894L164.033 11.62L164.031 11.6161C164.001 11.6027 163.971 11.5881 163.941 11.5747C163.971 11.5881 164.001 11.6014 164.028 11.6161L164.033 11.6227Z" fill="#FFFCFA"/>
<path d="M155.52 8.02533C156.356 8.33467 157.267 8.69332 158.375 9.13998C158.449 9.16932 158.521 9.1987 158.597 9.22937C158.521 9.1987 158.449 9.16801 158.373 9.13868C157.264 8.69068 156.357 8.33736 155.52 8.02403L155.02 7.83868L154.951 7.81335L155.019 7.83868L155.52 8.02533Z" fill="#FFFCFA"/>
<path d="M107.017 1.00537C107.273 0.988038 107.531 0.981366 107.787 0.966699C107.531 0.981366 107.273 0.988038 107.017 1.00537Z" fill="#FFFCFA"/>
<path d="M97.5187 2.06138L97.5173 2.06274C97.524 2.06008 97.5293 2.05871 97.5347 2.05871C97.5293 2.05871 97.524 2.06004 97.5187 2.06138Z" fill="#FFFCFA"/>
<path d="M119.431 0.810726C122.029 0.908059 124.625 1.08674 127.203 1.35474C124.625 1.08674 122.029 0.908059 119.431 0.810726Z" fill="#FFFCFA"/>
<path d="M139.185 3.27062C139.92 3.42796 140.648 3.58934 141.375 3.76001C140.648 3.58934 139.92 3.42796 139.185 3.27062Z" fill="#FFFCFA"/>
<path d="M187.537 26.3893L187.568 26.4133L187.536 26.3866C187.347 26.2266 187.149 26.072 186.957 25.92L186.955 25.9173L186.956 25.9187C187.147 26.0733 187.345 26.228 187.537 26.3893Z" fill="#FFFCFA"/>
<path d="M184.961 24.3587L184.98 24.3707L184.992 24.3841C185.643 24.8787 186.292 25.3868 186.912 25.8881L186.924 25.8934L186.913 25.8867C186.291 25.3854 185.645 24.8801 184.995 24.3814L184.979 24.368L184.961 24.3561C184.791 24.2227 184.613 24.0894 184.437 23.9561L184.223 23.7947L184.435 23.9561C184.615 24.0921 184.788 24.2227 184.961 24.3587Z" fill="#FFFCFA"/>
<path d="M184.005 23.6307C183.995 23.6227 183.985 23.6147 183.976 23.6081L183.995 23.6214L183.969 23.6027L183.977 23.6094C183.987 23.616 183.996 23.6227 184.005 23.6307Z" fill="#FFFCFA"/>
<path d="M183.929 23.5734L183.899 23.5521L183.533 23.2814L183.897 23.5534L183.929 23.5734Z" fill="#FFFCFA"/>
<path d="M182.467 22.5013C182.561 22.568 182.655 22.636 182.749 22.704C182.656 22.6373 182.564 22.5693 182.468 22.5013L182.265 22.356L182.268 22.3587L182.467 22.5013Z" fill="#FFFCFA"/>
<path d="M182.244 22.3401L182.232 22.3308C182.037 22.1908 181.843 22.0508 181.645 21.9148C181.841 22.0508 182.036 22.1894 182.231 22.3347L182.244 22.3401Z" fill="#FFFCFA"/>
<path d="M179.947 20.7268L179.929 20.7148C179.713 20.5668 179.496 20.4201 179.279 20.2734C179.496 20.4201 179.712 20.5681 179.928 20.7174L179.947 20.7268Z" fill="#FFFCFA"/>
<path d="M178.124 19.5081C178.107 19.4974 178.089 19.4854 178.072 19.4747L178.069 19.4721V19.4734C178.088 19.4854 178.105 19.4974 178.124 19.5081Z" fill="#FFFCFA"/>
<path d="M177.104 18.8479C177.339 18.9959 177.572 19.1493 177.807 19.3013C177.573 19.1479 177.34 18.9959 177.107 18.8479L177.069 18.824L177.065 18.8213L177.068 18.8226L177.104 18.8479Z" fill="#FFFCFA"/>
<path d="M173.571 16.6694L173.567 16.6668L173.569 16.6681L173.571 16.6694Z" fill="#FFFCFA"/>
<path d="M174.2 17.0467L174.783 17.3988C175.153 17.6161 175.519 17.8454 175.879 18.0747L175.928 18.1054L175.935 18.1094L175.925 18.1027L175.881 18.0747C175.52 17.8441 175.152 17.6188 174.784 17.3961L174.2 17.0454L174.193 17.0374C174.104 16.9854 174.015 16.9321 173.927 16.8801C174.016 16.9334 174.103 16.9854 174.195 17.04L174.2 17.0467Z" fill="#FFFCFA"/>
<path d="M188.429 27.12L188.521 27.196L188.428 27.1173C188.164 26.8973 187.907 26.6867 187.651 26.48L187.611 26.448L187.649 26.4813C187.908 26.6867 188.163 26.8973 188.429 27.12Z" fill="#FFFCFA"/>
<path d="M172.553 16.0801C172.82 16.2334 173.083 16.384 173.347 16.5374C173.083 16.384 172.82 16.2307 172.556 16.0787L172.356 15.9627C172.264 15.9094 172.175 15.86 172.083 15.8067C172.175 15.86 172.263 15.9094 172.355 15.9627L172.553 16.0801Z" fill="#FFFCFA"/>
<path d="M1.10667 100.045L1.09866 100.093L1.09332 100.14L1.10133 100.093L1.10667 100.045Z" fill="#FFFCFA"/>
<path d="M1.07866 100.256L1.06934 100.329V100.343L1.07067 100.329L1.07866 100.256Z" fill="#FFFCFA"/>
<path d="M1.24399 99.072C1.26933 98.8747 1.3 98.676 1.33066 98.4774L1.352 98.3373L1.32933 98.4774C1.3 98.6734 1.26933 98.8734 1.24399 99.072L1.24134 99.0907L1.24001 99.104L1.24399 99.0907V99.072Z" fill="#FFFCFA"/>
<path d="M1.22268 99.2254C1.20668 99.3414 1.19068 99.4601 1.17334 99.5774L1.12933 99.8907L1.176 99.5801C1.19066 99.4587 1.20801 99.3414 1.22268 99.2254Z" fill="#FFFCFA"/>
<path d="M0.749327 102.961C0.763993 102.829 0.778654 102.7 0.793321 102.569C0.778654 102.701 0.762659 102.829 0.747992 102.961L0.746657 102.972L0.743988 102.991L0.749327 102.973V102.961Z" fill="#FFFCFA"/>
<path d="M0.21466 109.417C0.20266 109.644 0.189322 109.872 0.177322 110.1V110.12L0.179992 110.1C0.189325 109.872 0.20266 109.644 0.21466 109.417Z" fill="#FFFCFA"/>
<path d="M0.45865 105.9C0.447983 106.031 0.435983 106.161 0.425316 106.293C0.419983 106.36 0.41465 106.427 0.409317 106.493C0.415984 106.427 0.419984 106.359 0.426651 106.292C0.435984 106.161 0.447983 106.031 0.45865 105.9Z" fill="#FFFCFA"/>
<path d="M0.346667 107.344C0.350667 107.287 0.354663 107.227 0.358663 107.169C0.35333 107.228 0.349333 107.287 0.345333 107.347C0.309333 107.771 0.280006 108.216 0.252006 108.729L0.250671 108.737L0.253341 108.731C0.278674 108.217 0.309334 107.772 0.346667 107.344Z" fill="#FFFCFA"/>
<path d="M60.1347 154.473C60.1827 154.581 60.236 154.687 60.2853 154.795C60.236 154.687 60.1827 154.581 60.1347 154.473Z" fill="#FFFCFA"/>
<path d="M166.312 12.7267C167.984 13.5587 169.649 14.436 171.28 15.3494C169.649 14.4347 167.983 13.556 166.312 12.7267Z" fill="#FFFCFA"/>
<path d="M190.064 28.5C189.844 28.3093 189.625 28.1213 189.397 27.9307L188.949 27.5587L189.395 27.9307C189.625 28.12 189.844 28.3093 190.064 28.5Z" fill="#FFFCFA"/>
<path d="M77.4493 50.9227C87.2547 40.3521 99.2987 32.1441 112.863 26.8934C116.972 25.3014 121.167 24.004 125.431 23.004C121.165 24.004 116.969 25.3001 112.86 26.8908C99.2973 32.1428 87.2533 40.3507 77.4493 50.9227Z" fill="#FFFCFA"/>
<path d="M97.9293 197.349H97.9306C86.584 190.489 76.7667 181.308 69.0547 170.255C66.2587 166.249 63.792 162.068 61.6653 157.743C63.792 162.068 66.2587 166.251 69.0547 170.257C76.7627 181.308 86.5813 190.489 97.9293 197.349Z" fill="#FFFCFA"/>
<path d="M0.0426615 114.831V114.833C0.0426615 114.961 0.0413432 115.087 0.0413432 115.215C0.0400098 115.327 0.0400085 115.439 0.0400085 115.551C0.0400085 115.437 0.0399949 115.325 0.0426615 115.213V114.831Z" fill="#FFFCFA"/>
<path d="M24.736 174.82C9.13867 159.441 0.372001 138.916 0.0493347 117.033L0.0426615 116.725V116.36C0.0399949 116.248 0.0400085 116.139 0.0400085 116.028C0.0400085 116.137 0.0400098 116.247 0.0413432 116.356C0.0413432 116.479 0.0426615 116.601 0.0426615 116.724L0.0466654 117.035C0.370665 138.919 9.13734 159.44 24.7333 174.82C40.344 190.217 61.016 198.696 82.9453 198.696C86.4347 198.696 89.8907 198.467 93.308 198.041C89.8894 198.465 86.4333 198.696 82.9493 198.696C61.0173 198.696 40.344 190.219 24.736 174.82Z" fill="#FFFCFA"/>
<path d="M192.632 30.7734L192.671 30.8094C192.875 30.9934 193.075 31.1787 193.279 31.3694C193.075 31.1787 192.875 30.9934 192.671 30.8081L192.632 30.7721L192.364 30.5294C192.321 30.4894 192.277 30.4507 192.235 30.412C192.279 30.452 192.321 30.4907 192.367 30.5307L192.632 30.7734Z" fill="#FFFCFA"/>
<path d="M194.572 32.5881L194.529 32.5481L194.512 32.5308L194.528 32.5508L194.572 32.5881Z" fill="#FFFCFA"/>
<path d="M195.704 33.6827C195.713 33.6881 195.72 33.6974 195.728 33.7067C195.731 33.708 195.735 33.7107 195.737 33.712C195.728 33.7014 195.717 33.692 195.707 33.6814C195.571 33.5507 195.433 33.4174 195.297 33.2814C195.117 33.104 194.932 32.9294 194.747 32.7547C194.931 32.9307 195.116 33.1054 195.295 33.2814C195.431 33.4174 195.573 33.5534 195.704 33.6827Z" fill="#FFFCFA"/>
<path d="M193.984 32.0334C193.807 31.8654 193.64 31.7041 193.453 31.5321L193.431 31.5121L193.451 31.5347C193.639 31.7041 193.807 31.8654 193.984 32.0334Z" fill="#FFFCFA"/>
<path d="M0.173331 110.176L0.171996 110.191C0.170663 110.217 0.17066 110.243 0.169327 110.267C0.17066 110.243 0.171997 110.219 0.173331 110.193V110.176Z" fill="#FFFCFA"/>
<path d="M0.161323 110.491L0.159988 110.499V110.503L0.161323 110.496V110.491Z" fill="#FFFCFA"/>
<path d="M0.0679911 113.412V113.257C0.0679911 113.183 0.0679963 113.109 0.0733297 113.04C0.0799963 112.588 0.0933186 112.149 0.111985 111.679C0.114652 111.567 0.119997 111.459 0.123997 111.349C0.12133 111.457 0.114651 111.567 0.110651 111.675C0.0933173 112.148 0.0799937 112.591 0.0706604 113.039C0.0706604 113.112 0.0693245 113.184 0.0679911 113.256L0.0666565 113.296V113.371L0.0653219 113.415C0.0559885 113.781 0.0519879 114.149 0.0479879 114.521L0.0453186 114.729L0.0493225 114.52C0.0493225 114.149 0.0559911 113.784 0.0679911 113.412Z" fill="#FFFCFA"/>
<path d="M1.36799 98.2307L1.35199 98.3373L1.33065 98.4774C1.29998 98.676 1.26931 98.8747 1.24398 99.072V99.0907L1.23999 99.104L1.23732 99.1093C1.23332 99.1467 1.22799 99.1867 1.22266 99.2253C1.20799 99.3413 1.19065 99.4587 1.17598 99.58L1.12932 99.8907L1.12132 99.9453L1.10799 100.039L1.10666 100.045L1.10132 100.093L1.09331 100.14L1.08932 100.163L1.07865 100.256L1.07066 100.329L1.06932 100.343L1.05864 100.392C1.00931 100.769 0.958645 101.152 0.909312 101.536C0.869312 101.873 0.831979 102.223 0.793313 102.569C0.778646 102.7 0.763985 102.829 0.749318 102.961V102.973L0.74398 102.991L0.742645 102.999C0.693312 103.413 0.650659 103.835 0.606659 104.249C0.575992 104.559 0.550656 104.873 0.519989 105.189V105.221L0.489325 105.531C0.477325 105.653 0.467978 105.777 0.458645 105.9C0.447978 106.031 0.435979 106.161 0.426646 106.292C0.419979 106.359 0.415979 106.427 0.409312 106.493C0.401312 106.593 0.390653 106.693 0.383986 106.793C0.374653 106.92 0.366645 107.044 0.358645 107.169C0.354645 107.227 0.350649 107.287 0.346649 107.344C0.309316 107.772 0.278656 108.217 0.253322 108.731L0.250653 108.737L0.247984 108.744V108.763C0.235984 108.98 0.225317 109.199 0.21465 109.417C0.20265 109.644 0.189316 109.872 0.179982 110.1L0.177313 110.12L0.173326 110.143V110.176V110.193C0.171992 110.219 0.170655 110.243 0.169322 110.267C0.166655 110.317 0.165314 110.367 0.161314 110.421V110.491V110.496L0.159979 110.503L0.154657 110.576C0.141324 110.833 0.133326 111.091 0.123993 111.349C0.119993 111.459 0.114648 111.567 0.111981 111.679C0.0933145 112.149 0.0799923 112.588 0.0733256 113.04C0.0679923 113.109 0.0679871 113.183 0.0679871 113.257V113.412C0.0559871 113.784 0.0493184 114.149 0.0493184 114.52L0.0453145 114.729L0.0426453 114.824V114.831V115.213C0.0399786 115.325 0.0399923 115.437 0.0399923 115.551C0.0399923 115.629 0.037323 115.709 0.037323 115.789C0.037323 115.867 0.0399923 115.948 0.0399923 116.028C0.0399923 116.139 0.0399786 116.248 0.0426453 116.36V116.725L0.0493184 117.033C0.371985 138.916 9.13865 159.441 24.736 174.82C40.344 190.219 61.0173 198.696 82.9493 198.696C86.4333 198.696 89.8893 198.465 93.308 198.041C94.8573 197.849 96.4013 197.629 97.932 197.352C97.9306 197.351 97.9306 197.351 97.9293 197.349C86.5813 190.489 76.7626 181.308 69.0546 170.257C66.2587 166.251 63.792 162.068 61.6653 157.743C61.1866 156.768 60.7307 155.784 60.2853 154.795C60.236 154.687 60.1827 154.581 60.1347 154.473C54.7547 142.387 51.96 129.271 51.96 115.789C51.96 96.1813 57.8733 77.3453 69.0546 61.3227C71.624 57.64 74.4333 54.1733 77.4493 50.9227C87.2533 40.3507 99.2973 32.1427 112.86 26.8907C116.969 25.3 121.165 24.004 125.431 23.004C132.539 21.3373 139.839 20.4947 147.248 20.4947C164.567 20.4947 181.203 25.0947 195.735 33.7133C195.733 33.7107 195.729 33.7093 195.728 33.7066C195.72 33.6973 195.713 33.688 195.704 33.6827C195.573 33.5534 195.431 33.4173 195.295 33.2813C195.116 33.1053 194.931 32.9307 194.747 32.7547C194.689 32.7014 194.633 32.6467 194.577 32.5934L194.572 32.588L194.528 32.5507L194.512 32.5307L194.484 32.5C194.328 32.3507 194.151 32.1893 193.984 32.0333C193.807 31.8653 193.639 31.704 193.451 31.5346L193.431 31.512L193.413 31.4907L193.369 31.4533C193.339 31.4253 193.309 31.3987 193.279 31.3693C193.075 31.1787 192.875 30.9933 192.671 30.8093L192.632 30.7733L192.367 30.5307C192.321 30.4907 192.279 30.452 192.235 30.412C191.94 30.144 191.648 29.88 191.357 29.6214C191.023 29.324 190.701 29.0453 190.379 28.7667C190.279 28.6773 190.168 28.588 190.064 28.5C189.844 28.3093 189.625 28.12 189.395 27.9307L188.949 27.5587L188.708 27.3547L188.701 27.3427L188.521 27.196L188.429 27.12C188.163 26.8973 187.908 26.6867 187.649 26.4813L187.611 26.448L187.593 26.4333L187.568 26.4134L187.537 26.3893C187.345 26.228 187.147 26.0734 186.956 25.9187L186.955 25.9173L186.936 25.9L186.924 25.8934L186.912 25.888C186.292 25.3867 185.643 24.8787 184.992 24.384L184.98 24.3707L184.961 24.3587C184.788 24.2227 184.615 24.092 184.435 23.956L184.223 23.7947L184.095 23.696C184.067 23.672 184.036 23.652 184.005 23.6307C183.996 23.6227 183.987 23.616 183.977 23.6093L183.969 23.6027L183.947 23.5854L183.929 23.5733L183.897 23.5533L183.533 23.2813L183.401 23.1827L182.905 22.816C182.855 22.78 182.801 22.7413 182.749 22.704C182.655 22.636 182.561 22.568 182.467 22.5013L182.268 22.3587L182.265 22.356L182.256 22.3467L182.244 22.34L182.231 22.3346C182.036 22.1893 181.841 22.0507 181.645 21.9147C181.599 21.8813 181.553 21.8454 181.507 21.8134L181.451 21.776L181.401 21.74C180.924 21.4053 180.448 21.0707 179.964 20.736L179.952 20.7307L179.947 20.7267L179.928 20.7173C179.712 20.568 179.496 20.42 179.279 20.2733C179.227 20.2386 179.176 20.2013 179.123 20.1667L179.117 20.16L179.097 20.148C178.775 19.9373 178.452 19.72 178.124 19.508C178.105 19.4973 178.088 19.4853 178.069 19.4733V19.472L178.045 19.4547L178.015 19.436C177.945 19.3907 177.876 19.3466 177.807 19.3013C177.572 19.1493 177.339 18.996 177.104 18.848L177.068 18.8227L177.065 18.8214L177.031 18.7987C176.683 18.5694 176.331 18.352 175.971 18.1294L175.935 18.1093L175.928 18.1053L175.879 18.0747C175.519 17.8454 175.153 17.616 174.783 17.3987L174.2 17.0467L174.195 17.04C174.103 16.9853 174.016 16.9333 173.927 16.88C173.816 16.8134 173.704 16.7467 173.593 16.6813L173.571 16.6693L173.569 16.668L173.567 16.6667L173.551 16.656C173.483 16.6147 173.413 16.5786 173.347 16.5373C173.083 16.384 172.82 16.2334 172.553 16.08L172.355 15.9627C172.263 15.9094 172.175 15.86 172.083 15.8066C171.839 15.6653 171.596 15.5227 171.352 15.3867C171.328 15.3733 171.304 15.3627 171.28 15.3493C169.649 14.436 167.984 13.5587 166.312 12.7267C166.275 12.708 166.239 12.688 166.201 12.6693L166.183 12.6613L166.171 12.656L166.132 12.6387C165.767 12.4467 165.396 12.2667 165.019 12.0934L164.033 11.6227L164.028 11.616C164.001 11.6013 163.971 11.588 163.941 11.5747C163.923 11.5667 163.904 11.5587 163.885 11.548L163.86 11.536L163.852 11.5333L163.836 11.5294C162.672 10.9787 161.6 10.5013 160.567 10.0613L160.54 10.048L160.517 10.0373L160.493 10.0294L160.468 10.0187C160.22 9.90669 159.972 9.80267 159.719 9.69734L159.613 9.65332L159.539 9.62267L159.525 9.61336L159.52 9.61069L159.075 9.42403C158.917 9.36136 158.757 9.29471 158.597 9.22937C158.521 9.1987 158.449 9.16931 158.375 9.13998C157.267 8.69331 156.356 8.33467 155.52 8.02533L155.019 7.83868L154.951 7.81335L154.424 7.61603C153.019 7.10936 151.557 6.60664 150.091 6.14265L150.072 6.13731L150.053 6.13068C150.029 6.12267 150.005 6.11601 149.981 6.10802C149.701 6.01735 149.423 5.93065 149.143 5.84532C148.856 5.75598 148.569 5.66936 148.281 5.58269C148.111 5.53069 147.94 5.47736 147.768 5.42403C147.131 5.23869 146.524 5.06531 145.941 4.90398L145.912 4.90001L145.904 4.8987L145.888 4.892L145.868 4.88536C145.789 4.86403 145.708 4.8427 145.628 4.82137C145.501 4.7867 145.375 4.75336 145.248 4.71869L145.171 4.69603L145.057 4.6627C143.848 4.3387 142.612 4.04803 141.375 3.76003C140.648 3.58937 139.92 3.42798 139.185 3.27065C137.952 3.00798 136.716 2.74669 135.472 2.52136C135.008 2.44003 134.549 2.36003 134.085 2.28535L134.06 2.28001H134.041H134.029C133.571 2.19868 133.107 2.12399 132.643 2.056C132.428 2.024 132.215 1.99203 131.999 1.96004C131.729 1.92003 131.459 1.87732 131.193 1.83998C129.871 1.65598 128.539 1.49336 127.203 1.35469C124.625 1.0867 122.029 0.90802 119.431 0.810684C117.985 0.756012 116.54 0.725327 115.096 0.725327C112.661 0.725327 110.221 0.813339 107.787 0.966675C107.531 0.981339 107.273 0.988007 107.017 1.00534C104.327 1.19334 101.648 1.47198 98.9973 1.83998C98.52 1.90797 98.044 1.98132 97.5733 2.05066C97.56 2.05466 97.548 2.056 97.5346 2.05867C97.5293 2.05867 97.524 2.06003 97.5173 2.0627L1.37466 98.1987L1.36799 98.2307Z" fill="#36AE7C"/>
<path d="M228.853 133.2L228.867 133.115L228.879 133.021C228.903 132.86 228.928 132.693 228.947 132.532L228.953 132.495L228.959 132.433L228.971 132.364C229.003 132.155 229.04 131.937 229.064 131.727L229.076 131.585L229.101 131.443C229.113 131.373 229.12 131.307 229.132 131.244L229.219 130.525L229.288 130.031C229.349 129.553 229.399 129.108 229.448 128.663L229.455 128.6C229.504 128.173 229.547 127.771 229.584 127.363C229.616 127.021 229.653 126.699 229.677 126.384V126.365L229.708 126.056C229.733 125.827 229.752 125.604 229.764 125.38L229.769 125.293L229.776 125.207C229.807 124.916 229.825 124.625 229.844 124.335V124.291L229.851 124.216C229.888 123.796 229.919 123.349 229.944 122.848V122.817C229.975 122.365 229.999 121.925 230.024 121.492L230.031 121.363V121.183L230.036 121.004C230.061 120.639 230.073 120.267 230.085 119.895C230.104 119.393 230.117 118.917 230.129 118.44L230.135 118.377V118.161C230.141 117.82 230.148 117.475 230.148 117.127V116.737L230.153 116.675C230.16 116.377 230.16 116.081 230.16 115.789C230.16 115.48 230.16 115.164 230.153 114.861V114.836L230.148 114.539C229.825 92.6587 221.059 72.1333 205.468 56.7534C189.852 41.3547 169.18 32.8774 147.248 32.8774C142.184 32.8774 137.175 33.3307 132.264 34.2214C143.615 41.0827 153.433 50.2707 161.143 61.3227C172.324 77.3454 178.237 96.1814 178.237 115.789C178.237 135.399 172.324 154.233 161.143 170.257C150.22 185.909 135.069 197.816 117.331 204.683C106.377 208.924 94.812 211.079 82.9493 211.079C65.6307 211.079 49 206.477 34.4627 197.865L34.4867 197.891L34.5547 197.952L34.6173 198.015C34.6853 198.088 34.7533 198.156 34.828 198.219L35.0573 198.441C35.2427 198.627 35.428 198.807 35.62 198.987L35.6507 199.017L35.688 199.048C35.9973 199.345 36.3627 199.697 36.7227 200.027L36.7787 200.069L36.828 200.119C37.0627 200.343 37.2973 200.565 37.54 200.781L37.5587 200.8L37.5827 200.819C37.9973 201.203 38.4187 201.581 38.852 201.959L38.8773 201.976L38.9027 202.001C39.18 202.249 39.4587 202.497 39.744 202.745L39.7987 202.788L39.9853 202.948L40.004 202.955L40.8213 203.661L40.988 203.804L41.0253 203.84C41.248 204.027 41.4653 204.212 41.6947 204.392L41.7813 204.46L41.8613 204.533C42.0533 204.701 42.2693 204.875 42.512 205.067L42.592 205.128L42.6667 205.191C42.84 205.339 43.0133 205.481 43.18 205.605L43.236 205.648L43.2853 205.692C43.8987 206.187 44.536 206.683 45.18 207.171C45.316 207.283 45.4587 207.388 45.5947 207.493C45.756 207.617 45.9107 207.735 46.0707 207.853C46.164 207.92 46.2507 207.983 46.332 208.051L46.4867 208.163C46.74 208.355 47 208.547 47.26 208.739L47.5013 208.912C47.632 209.004 47.7627 209.097 47.892 209.191L47.9413 209.227L47.9973 209.264C48.1827 209.407 48.3813 209.543 48.572 209.679L48.784 209.828C49.2547 210.163 49.736 210.496 50.22 210.831L50.264 210.856L50.3067 210.887C50.5173 211.035 50.7347 211.177 50.944 211.32L51.1053 211.425L51.6373 211.779L52.2013 212.156C52.4867 212.341 52.784 212.54 53.0867 212.725C53.3907 212.923 53.6867 213.109 53.9787 213.295H54.708L56.0147 214.539C56.2133 214.664 56.4173 214.787 56.6227 214.905C57.0187 215.14 57.4213 215.375 57.8227 215.599L57.86 215.623L57.8973 215.648C58.2133 215.833 58.5293 216.007 58.8507 216.187C60.548 217.145 62.268 218.056 63.9893 218.905C64.3747 219.096 64.752 219.283 65.1293 219.461C65.1853 219.493 65.24 219.517 65.296 219.549C65.656 219.716 66.0093 219.883 66.368 220.056C67.452 220.564 68.56 221.059 69.6427 221.524L69.668 221.531L69.692 221.543C69.9587 221.66 70.2373 221.777 70.504 221.889C70.584 221.92 70.6707 221.957 70.764 222.001C71.1227 222.149 71.4827 222.297 71.8467 222.447C72.7333 222.805 73.692 223.177 74.6947 223.555L74.7267 223.567L74.7573 223.58C75.0667 223.697 75.376 223.815 75.692 223.925L75.736 223.939L75.772 223.951C77.24 224.489 78.6947 224.984 80.0947 225.424L80.144 225.443L80.1867 225.455C80.472 225.555 80.7507 225.641 81.036 225.728L81.0787 225.733L81.116 225.747C81.5427 225.883 81.9707 226.012 82.3973 226.143L82.7573 226.248C83.2707 226.391 83.7787 226.539 84.2867 226.681C84.5707 226.761 84.824 226.829 85.0787 226.897L85.14 226.911C88.3107 227.765 91.536 228.483 94.7187 229.047L94.756 229.059L94.7933 229.065C95.1773 229.133 95.592 229.208 96.112 229.295H96.1427L96.168 229.3C96.6813 229.387 97.1093 229.455 97.4987 229.511L97.5613 229.517L97.6227 229.529C98.0693 229.604 98.52 229.665 98.9667 229.728L99.004 229.733C104.304 230.471 109.715 230.848 115.096 230.848C120.483 230.848 125.9 230.471 131.2 229.733L131.312 229.715C131.739 229.653 132.16 229.597 132.58 229.529L132.643 229.517L132.685 229.511L228.829 133.368C228.835 133.312 228.841 133.256 228.853 133.2Z" fill="#EB5353"/>
</svg>
