<svg width="258" height="258" viewBox="0 0 258 258" fill="none" xmlns="http://www.w3.org/2000/svg">
<path d="M184.551 81.5961L150.675 115.475L163.759 128.559L197.635 94.6801L184.551 81.5961Z" fill="#F22147"/>
<path d="M116.072 150.076L82.1946 183.953L95.2786 197.037L129.156 163.16L116.072 150.076Z" fill="#F22147"/>
<path d="M142.24 107.04L176.117 73.1628L163.033 60.0787L129.156 93.9561L142.24 107.04Z" fill="#F22147"/>
<path d="M107.637 141.643L94.5533 128.559L60.676 162.435L73.76 175.519L107.637 141.643Z" fill="#F22147"/>
<path d="M107.637 115.475L73.76 81.5961L60.676 94.6801L94.5533 128.559L107.637 115.475Z" fill="#F22147"/>
<path d="M116.072 107.04L129.156 93.9561L95.2786 60.0787L82.1946 73.1628L116.072 107.04Z" fill="#F22147"/>
<path d="M150.675 141.643L184.551 175.519L197.635 162.435L163.759 128.559L150.675 141.643Z" fill="#F22147"/>
<path d="M176.117 183.953L142.24 150.076L129.156 163.16L163.033 197.037L176.117 183.953Z" fill="#F22147"/>
<path d="M176.117 210.121L163.033 197.037L129.156 230.915L95.2786 197.037L82.1946 210.121L129.156 257.083L176.117 210.121Z" fill="#1F2732"/>
<path d="M60.6759 94.6801L47.5919 81.5961L0.630615 128.559L47.5919 175.519L60.6759 162.435L26.7986 128.559L60.6759 94.6801Z" fill="#1F2732"/>
<path d="M210.719 81.5961L197.635 94.6801L231.513 128.559L197.635 162.435L210.719 175.519L257.68 128.559L210.719 81.5961Z" fill="#1F2732"/>
<path d="M163.033 60.0786L176.117 46.9946L129.156 0.0319939L82.1946 46.9946L95.2786 60.0786L129.156 26.2L163.033 60.0786Z" fill="#1F2732"/>
</svg>
