<svg width="249" height="250" viewBox="0 0 249 250" fill="none" xmlns="http://www.w3.org/2000/svg">
<path d="M223.925 25.3346C208.013 9.42264 186.853 0.658676 164.351 0.658676C141.845 0.654663 120.688 9.42265 104.772 25.3373C92.3359 37.7746 84.2626 53.4174 81.3319 70.408C81.0346 72.124 80.7906 73.8507 80.6052 75.592C80.4159 77.3013 80.2813 79.028 80.1986 80.7613C80.1293 82.1387 80.0959 83.524 80.0959 84.9134L80.0999 96.3667V101.523L80.0959 106.68L80.0933 169.168L142.587 169.164H147.741H152.896C152.984 167.76 153.027 166.343 153.031 164.915V153.593L147.887 153.589H95.6692L95.6732 106.517V96.236L95.6692 84.9134C95.6732 83.484 95.7172 82.0667 95.8039 80.664C95.9092 78.9293 96.0799 77.2173 96.3172 75.52C96.5532 73.7787 96.8586 72.0613 97.2293 70.3747C100.057 57.2587 106.652 45.532 115.809 36.3747C128.245 23.9387 145.415 16.2347 164.351 16.232C202.22 16.236 233.028 47.044 233.032 84.9134C233.028 103.849 225.325 121.019 212.889 133.455C203.732 142.612 192.004 149.205 178.888 152.035V153.459L178.884 164.915C178.884 165.924 178.871 166.935 178.841 167.931C195.832 165.001 211.485 156.931 223.925 144.491C239.841 128.576 248.605 107.415 248.605 84.9134C248.605 62.4107 239.841 41.2493 223.925 25.3346Z" fill="#FF4949"/>
<path d="M95.6732 96.236H105.955L153.027 96.2333L153.031 143.313V148.453V153.593V164.915C153.027 166.343 152.984 167.76 152.896 169.164C152.791 170.897 152.624 172.613 152.384 174.308C152.151 176.045 151.849 177.757 151.479 179.444C148.643 192.56 142.048 204.295 132.892 213.452C120.456 225.888 103.285 233.591 84.3493 233.595C46.4813 233.591 15.6719 202.783 15.6679 164.915C15.6719 145.977 23.3746 128.809 35.8119 116.372C44.9693 107.215 56.7 100.624 69.816 97.7893V84.9133C69.816 83.8947 69.8306 82.884 69.8626 81.892C52.872 84.8147 37.2186 92.892 24.7746 105.336C8.85995 121.251 0.0919384 142.408 0.0946051 164.915C0.0946051 187.417 8.85991 208.577 24.7706 224.489C40.6866 240.404 61.8466 249.169 84.3493 249.169C106.852 249.169 128.013 240.404 143.928 224.489C158.857 209.559 167.496 190.008 168.503 169.065C168.535 168.392 168.561 167.721 168.579 167.048C168.587 166.684 168.593 166.321 168.597 165.953C168.6 165.608 168.604 165.263 168.604 164.915L168.6 164.911V153.46L168.604 80.656L106.111 80.66L100.959 80.6627L95.8039 80.664C95.7172 82.0667 95.6733 83.484 95.6693 84.9133L95.6732 96.236Z" fill="#541690"/>
</svg>
