<svg width="301" height="244" viewBox="0 0 301 244" fill="none" xmlns="http://www.w3.org/2000/svg">
<path d="M23.9943 79.8266H76.7013L154.328 165.307H101.621L23.9943 79.8266ZM81.368 69.28H0.167732L96.9547 175.853H178.153L81.368 69.28Z" fill="#F73D93"/>
<path d="M163.075 0.933334L81.368 65.1733H0.167732L18.0479 51.12C59.3947 18.6133 110.475 0.933334 163.075 0.933334Z" fill="#16003B"/>
<path d="M145.875 79.4533H198.568L276.208 164.933H223.501L145.875 79.4533ZM203.248 68.9067H122.048L218.835 175.48H300.035L203.248 68.9067Z" fill="#F73D93"/>
<path d="M300.035 179.587L282.153 193.64C261.487 209.893 238.368 222.44 213.861 230.92C189.353 239.413 163.433 243.827 137.127 243.827L218.835 179.587H300.035Z" fill="#16003B"/>
</svg>
