<svg width="307" height="213" viewBox="0 0 307 213" fill="none" xmlns="http://www.w3.org/2000/svg">
<path d="M87.732 212.337L87.7173 212.308L79.716 198.452L16.2814 88.5801H0.278687L71.7147 212.312L71.6987 212.337H71.7294H87.6973H87.732Z" fill="#7D1E6A"/>
<path d="M151.723 212.337L151.708 212.308L143.707 198.452L135.709 184.601L127.708 170.745L119.712 156.889L111.711 143.033L80.2706 88.5801H64.2733L103.709 156.889L111.711 170.745L119.712 184.601L127.708 198.452L135.709 212.308L135.689 212.337H135.725H151.687H151.723Z" fill="#7D1E6A"/>
<path d="M175.701 198.452L167.705 184.601L159.704 170.745L151.708 156.889L143.707 143.033L135.709 129.183L127.708 115.327L112.267 88.5801H96.2693L119.707 129.177L135.709 156.889L143.707 170.745L151.708 184.601L159.704 198.452L167.705 212.308L167.684 212.337H167.72H183.687H183.717L183.703 212.312L175.701 198.452Z" fill="#7D1E6A"/>
<path d="M210.187 0.182671H194.184L135.791 101.331L143.792 115.185L210.187 0.182671Z" fill="#EEB0B0"/>
<path d="M103.729 212.337H119.728L119.712 212.308L111.711 198.452L103.715 184.601L95.7133 170.745L48.276 88.5801H32.2786L87.712 184.596L95.7133 198.452L103.715 212.308L103.695 212.337H103.729Z" fill="#7D1E6A"/>
<path d="M159.789 142.892L242.181 0.182785H226.184L151.788 129.036L151.875 129.183L159.789 142.892Z" fill="#EEB0B0"/>
<path d="M175.787 170.604L274.177 0.182678H258.18L167.785 156.743L167.872 156.889L175.787 170.604Z" fill="#EEB0B0"/>
<path d="M306.172 0.182587H290.175L183.784 184.455L183.869 184.601L191.785 198.311L306.172 0.182587Z" fill="#EEB0B0"/>
</svg>
