<svg width="213" height="251" viewBox="0 0 213 251" fill="none" xmlns="http://www.w3.org/2000/svg">
<path d="M199.789 184.487C196.46 190.356 192.524 195.876 188.047 200.949L188.171 201.073L184.016 205.245C165.503 223.871 140.844 234.135 114.588 234.135C88.4373 234.135 63.8493 223.947 45.3586 205.457C26.8693 186.968 16.6813 162.379 16.6813 136.229C16.6813 134.303 16.74 132.34 16.8586 130.395C16.8706 130.131 16.888 129.86 16.9053 129.583L16.9107 129.505C16.924 129.329 16.9347 129.152 16.9467 128.969L16.9533 128.881C16.9826 128.48 17.0173 128.073 17.0533 127.668C17.0826 127.337 17.112 126.984 17.148 126.631C17.2 126.112 17.2533 125.581 17.312 125.052C17.3466 124.745 17.3826 124.403 17.4306 124.067C17.4773 123.637 17.5413 123.153 17.6066 122.671C17.648 122.4 17.6826 122.141 17.7253 121.875C17.784 121.433 17.86 120.944 17.9426 120.455C17.984 120.196 18.0306 119.908 18.0786 119.624C18.12 119.389 18.16 119.141 18.208 118.9C18.2613 118.587 18.3253 118.228 18.3907 117.88C18.4493 117.575 18.5133 117.237 18.5786 116.903C18.656 116.52 18.732 116.136 18.82 115.748C19.38 113.079 20.0693 110.397 20.8586 107.787L20.8827 107.716C20.9827 107.375 21.0893 107.027 21.2013 106.685C21.2893 106.396 21.384 106.096 21.484 105.795C22.0373 104.087 22.656 102.36 23.3107 100.687C23.3987 100.457 23.4933 100.209 23.5933 99.968C23.6933 99.708 23.8 99.444 23.912 99.172C24.0413 98.848 24.188 98.4946 24.3413 98.136C24.4533 97.864 24.5827 97.5639 24.7133 97.2626L24.772 97.128C24.9547 96.7213 25.1307 96.3146 25.3133 95.908C25.4493 95.608 25.5853 95.312 25.7267 95.012C28.1947 89.6853 31.188 84.536 34.6173 79.704L35.172 78.9386C35.5613 78.4026 35.9493 77.8773 36.3387 77.36C36.5267 77.1173 36.7213 76.852 36.9213 76.5986C37.352 76.0453 37.7826 75.4973 38.2173 74.9546C38.4706 74.6426 38.7307 74.3186 38.996 74.0066C39.232 73.712 39.5026 73.4 39.768 73.0813C40.0266 72.7693 40.2973 72.4573 40.5693 72.1506C40.8693 71.8026 41.176 71.4493 41.488 71.1013L29.992 59.6C10.9186 80.6053 0.442627 107.723 0.442627 136.229C0.442627 166.721 12.316 195.381 33.8747 216.941C55.4347 238.501 84.0947 250.373 114.588 250.373C145.175 250.373 173.904 238.429 195.476 216.753C201.633 210.572 207.061 203.713 211.639 196.336L199.789 184.487Z" fill="#15133C"/>
<path d="M53.7146 197.101C69.9706 213.359 91.5907 222.315 114.588 222.315C115.307 222.315 116.025 222.303 116.749 222.285C117.109 222.28 117.457 222.268 117.811 222.256H117.864C118.395 222.232 118.919 222.209 119.449 222.179C119.873 222.156 120.292 222.132 120.709 222.103C120.928 222.085 121.111 222.073 121.287 222.061L121.576 222.037C121.959 222.008 122.353 221.973 122.743 221.932C123.091 221.903 123.413 221.872 123.744 221.837C123.985 221.813 124.192 221.791 124.392 221.767L124.828 221.72C125.111 221.684 125.395 221.649 125.683 221.608C126.743 221.477 127.792 221.325 128.812 221.155C129.1 221.107 129.383 221.055 129.665 221.007L129.76 220.989C129.989 220.948 130.208 220.912 130.432 220.871L130.544 220.848C130.839 220.795 131.133 220.736 131.421 220.676C132.2 220.524 132.953 220.371 133.708 220.199C134.215 220.087 134.721 219.964 135.223 219.84L135.287 219.823C135.416 219.793 135.54 219.763 135.671 219.728C136.047 219.635 136.383 219.545 136.719 219.457C137.013 219.38 137.291 219.309 137.561 219.233C137.803 219.168 138.009 219.109 138.216 219.051C138.416 218.992 138.575 218.951 138.728 218.903L138.847 218.868C139.059 218.809 139.271 218.744 139.483 218.679C139.836 218.573 140.148 218.479 140.455 218.379C140.703 218.303 140.927 218.232 141.156 218.161C141.88 217.925 142.593 217.684 143.307 217.429C143.507 217.36 143.695 217.295 143.877 217.224L144.019 217.177C144.273 217.088 144.496 217.005 144.715 216.917C145.068 216.788 145.387 216.671 145.705 216.54C145.976 216.44 146.205 216.352 146.435 216.257C146.877 216.081 147.272 215.921 147.673 215.756L148.869 215.244C149.245 215.085 149.611 214.925 149.964 214.761C150.177 214.667 150.353 214.584 150.536 214.501L150.707 214.425C150.996 214.289 151.296 214.148 151.591 214.007C153.4 213.147 155.185 212.216 156.912 211.237C157.1 211.131 157.277 211.025 157.453 210.924C157.855 210.696 158.249 210.46 158.644 210.229L160.612 209.016C161.484 208.463 162.38 207.867 163.352 207.201C163.617 207.012 163.888 206.824 164.153 206.636L164.265 206.559C164.465 206.417 164.665 206.276 164.86 206.129L164.919 206.087C165.067 205.981 165.213 205.875 165.355 205.769L165.408 205.728C165.656 205.552 165.903 205.368 166.145 205.187C166.421 204.98 166.687 204.78 166.947 204.58C167.128 204.437 167.283 204.313 167.441 204.191L167.624 204.049C167.895 203.837 168.165 203.619 168.437 203.401C168.72 203.176 168.991 202.952 169.263 202.729L169.332 202.671C169.851 202.245 170.364 201.809 170.876 201.363C171.029 201.227 171.188 201.091 171.347 200.955L159.835 189.441C147.231 200.184 131.251 206.069 114.588 206.069C76.076 206.069 44.7467 174.741 44.7467 136.229C44.7467 117.463 52.088 99.844 65.416 86.6334C71.6747 80.4347 79.1626 75.4027 87.2533 71.9494L75.044 59.7414C67.2613 63.7774 60.1546 68.9627 53.9026 75.1787C37.5226 91.4587 28.5013 113.137 28.5013 136.229C28.5013 159.227 37.4586 180.845 53.7146 197.101Z" fill="#EC994B"/>
<path d="M212.257 114.805C212.257 84.3173 200.385 55.6586 178.825 34.0986C157.265 12.5386 128.605 0.665283 98.1133 0.665283C67.5254 0.665283 38.7947 12.6026 17.224 34.2866C11.0667 40.4613 5.64001 47.3266 1.06134 54.7026L12.9107 66.5533C16.24 60.6839 20.1813 55.1639 24.6533 50.0893L24.5307 49.9666L28.684 45.7946C47.1973 27.1626 71.856 16.9053 98.1133 16.9053C124.263 16.9053 148.851 27.092 167.341 45.5826C185.831 64.072 196.019 88.6546 196.019 114.805C196.019 116.743 195.959 118.705 195.843 120.644C195.831 120.903 195.812 121.18 195.795 121.457C195.783 121.651 195.765 121.852 195.753 122.059L195.748 122.152C195.717 122.559 195.683 122.965 195.648 123.365C195.619 123.701 195.588 124.061 195.553 124.415C195.5 124.921 195.447 125.457 195.388 125.988C195.352 126.295 195.317 126.631 195.271 126.972C195.223 127.403 195.159 127.885 195.093 128.368C195.052 128.64 195.016 128.899 194.976 129.159C194.917 129.607 194.84 130.095 194.757 130.584C194.716 130.843 194.669 131.127 194.623 131.415C194.581 131.656 194.54 131.897 194.492 132.14C194.445 132.452 194.375 132.811 194.309 133.159C194.251 133.465 194.185 133.801 194.116 134.137C194.044 134.515 193.968 134.903 193.88 135.292C193.315 137.961 192.631 140.648 191.841 143.253C191.729 143.617 191.623 143.983 191.499 144.355C191.411 144.643 191.317 144.937 191.216 145.244C190.656 146.964 190.044 148.685 189.389 150.353C189.301 150.583 189.208 150.824 189.113 151.065C189.007 151.331 188.901 151.596 188.789 151.867C188.659 152.191 188.507 152.551 188.359 152.904C188.247 153.175 188.117 153.476 187.987 153.776L187.929 153.912C187.745 154.317 187.569 154.725 187.387 155.125C187.251 155.425 187.116 155.727 186.973 156.021C184.505 161.348 181.512 166.504 178.083 171.329L177.535 172.095C177.14 172.637 176.751 173.161 176.361 173.675C176.173 173.921 175.979 174.187 175.779 174.44C175.348 174.993 174.919 175.541 174.483 176.084C174.229 176.396 173.969 176.72 173.705 177.032C173.481 177.309 173.233 177.604 172.987 177.899L172.939 177.952C172.668 178.264 172.403 178.583 172.131 178.889C171.831 179.236 171.524 179.589 171.212 179.937L182.708 191.44C201.781 170.433 212.257 143.317 212.257 114.805Z" fill="#EC994B"/>
<path d="M125.447 179.09L137.656 191.299C145.44 187.261 152.545 182.076 158.797 175.86C175.177 159.58 184.199 137.896 184.199 114.806C184.199 91.8122 175.243 70.1948 158.987 53.9375C142.729 37.6815 121.111 28.7255 98.1134 28.7255C97.3947 28.7255 96.6747 28.7362 95.9507 28.7535C95.5907 28.7602 95.2374 28.7655 94.8894 28.7829H94.8373C94.3067 28.8069 93.7827 28.8308 93.2521 28.8602C92.8267 28.8842 92.4094 28.9082 91.9907 28.9362C91.7721 28.9482 91.5907 28.9668 91.4134 28.9775L91.1187 29.0015C90.7414 29.0308 90.3467 29.0668 89.9587 29.1015C89.6107 29.1375 89.2867 29.1668 88.956 29.2015C88.7147 29.2255 88.508 29.2495 88.3027 29.2722L87.9667 29.3082C87.9254 29.3135 87.8894 29.3202 87.8547 29.3255C87.5707 29.3548 87.3 29.3908 87.0174 29.4255C85.9574 29.5615 84.908 29.7148 83.8894 29.8855C83.6 29.9322 83.3173 29.9788 83.0347 30.0322L82.94 30.0508C82.716 30.0868 82.504 30.1268 82.292 30.1682L82.1507 30.1922C81.868 30.2455 81.5853 30.2975 81.3013 30.3575C80.5013 30.5095 79.7467 30.6695 78.992 30.8402C78.4854 30.9522 77.9787 31.0762 77.4787 31.1988L77.4134 31.2175C77.284 31.2402 77.16 31.2762 77.0307 31.3055C76.6534 31.4002 76.3173 31.4882 75.9813 31.5762C75.692 31.6535 75.416 31.7242 75.1387 31.8068C74.8974 31.8708 74.6907 31.9295 74.4787 31.9895C74.2787 32.0482 74.1254 32.0895 73.972 32.1362L73.8547 32.1722C73.6427 32.2309 73.4307 32.2895 73.2174 32.3602C72.864 32.4602 72.552 32.5602 72.2453 32.6602C71.9987 32.7375 71.7747 32.8082 71.544 32.8788C70.82 33.1149 70.1067 33.3562 69.3947 33.6095C69.2 33.6735 69.0227 33.7388 68.84 33.8042L68.6747 33.8628C68.4334 33.9508 68.2213 34.0282 68.004 34.1109C67.632 34.2455 67.3147 34.3695 66.9961 34.4935C66.7307 34.5935 66.5014 34.6882 66.2654 34.7815C65.8227 34.9522 65.428 35.1175 65.028 35.2829L63.8321 35.7962C63.4547 35.9548 63.0947 36.1135 62.736 36.2789C62.5294 36.3722 62.3467 36.4548 62.164 36.5375L61.9934 36.6149C61.7041 36.7509 61.404 36.8922 61.1093 37.0322C59.3 37.8935 57.5094 38.8242 55.7894 39.8028C55.5947 39.9082 55.424 40.0082 55.2467 40.1149C54.8694 40.3322 54.4921 40.5508 54.1214 40.7748L52.8774 41.5295C52.6254 41.6882 52.3534 41.8588 52.0881 42.0242C51.2107 42.5775 50.3147 43.1722 49.3547 43.8375C49.1067 44.0095 48.8587 44.1802 48.6174 44.3508L48.4587 44.4628C48.2347 44.6215 48.0347 44.7628 47.8347 44.9108L47.7521 44.9695C47.6161 45.0695 47.4813 45.1708 47.3453 45.2708L47.292 45.3109C47.044 45.4882 46.7974 45.6708 46.556 45.8535C46.2787 46.0588 46.0187 46.2602 45.7601 46.4602C45.5707 46.6015 45.4187 46.7255 45.2654 46.8428L45.076 46.9908C44.8053 47.2028 44.5347 47.4148 44.264 47.6388C43.9574 47.8802 43.6627 48.1282 43.368 48.3695C42.844 48.7935 42.3374 49.2295 41.8241 49.6775C41.6654 49.8135 41.5121 49.9482 41.3521 50.0842L52.8667 61.5975C65.4694 50.8562 81.4494 44.9642 98.1134 44.9642C136.625 44.9642 167.953 76.2988 167.953 114.806C167.953 133.578 160.612 151.19 147.284 164.406C141.027 170.604 133.537 175.636 125.447 179.09Z" fill="#15133C"/>
</svg>
